# ProBuilder 5.0.7
# https://unity3d.com/unity/features/worldbuilding/probuilder
# 8/16/2023 7:18:19 AM

mtllib ./GameBounds.mtl
o GameBounds

g PolyShape
v -74.08722 -22.87101 133.9678
v -170.9705 -22.87101 6.689728
v -74.08722 22.87101 133.9678
v -170.9705 22.87101 6.689728
v -104.0892 -22.87101 -130.4359
v -104.0892 22.87101 -130.4359
v 88.98356 -22.87101 -133.9678
v 88.98356 22.87101 -133.9678
v 87.38493 -22.87101 130.1684
v 87.38493 22.87101 130.1684
v 170.9705 -22.87101 9.539238
v 170.9705 22.87101 9.539238

vt -61.72518 -22.87101
vt 98.23129 -22.87101
vt -61.72518 22.87101
vt 98.23129 22.87101
vt -80.96181 -22.87101
vt 71.60476 -22.87101
vt -80.96181 22.87101
vt 71.60476 22.87101
vt -101.6862 -22.87101
vt 91.41891 -22.87101
vt -101.6862 22.87101
vt 91.41891 22.87101
vt -84.29881 -22.87101
vt 77.21803 -22.87101
vt -84.29881 22.87101
vt 77.21803 22.87101
vt -72.18127 -22.87101
vt 93.09464 -22.87101
vt -72.18127 22.87101
vt 93.09464 22.87101
vt -89.5348 -22.87101
vt 57.22334 -22.87101
vt -89.5348 22.87101
vt 57.22334 22.87101

vn 0.7957042 0 -0.6056854
vn 0.8987923 0 0.4383746
vn 0.01828968 0 0.9998327
vn -0.02352292 0 -0.9997233
vn -0.8682876 0 0.4960611
vn -0.8219591 0 -0.5695465

usemtl Lit
f 1/1/1 2/2/1 4/4/1 3/3/1
f 2/5/2 5/6/2 6/8/2 4/7/2
f 5/9/3 7/10/3 8/12/3 6/11/3
f 9/13/4 1/14/4 3/16/4 10/15/4
f 7/17/5 11/18/5 12/20/5 8/19/5
f 11/21/6 9/22/6 10/24/6 12/23/6

