# ProBuilder 5.0.7
# https://unity3d.com/unity/features/worldbuilding/probuilder
# 8/17/2023 2:47:29 PM

mtllib ./island7_collider1.mtl
o island7_collider1

g PolyShape
v -14.8163 0 19.00813
v -14.62814 0 16.03393
v -14.8163 4.059856 19.00813
v -14.62814 4.059856 16.03393
v -13.76515 0 22.8373
v -13.76515 4.059856 22.8373
v -13.05315 0 10.76374
v -13.05315 4.059856 10.76374
v -13.98282 0 5.243546
v -11.98008 0 3.64135
v -13.98282 4.059856 5.243546
v -11.98008 4.059856 3.64135
v -7.974575 0 3.750603
v -7.974575 4.059856 3.750603
v -4.879417 0 3.422874
v -4.879417 4.059856 3.422874
v -1.565781 0 0.3641357
v 0 0 0
v -1.565781 4.059856 0.3641357
v 0 4.059856 0
v 4.029255 0 3.353523
v 4.029255 4.059856 3.353523
v -4.005493 0 2.840263
v -4.005493 4.059856 2.840263
v 7.633186 0 3.991722
v 7.633186 4.059856 3.991722
v 12.55105 0 4.329582
v 13.56465 0 6.65712
v 12.55105 4.059856 4.329582
v 13.56465 4.059856 6.65712
v 10.56138 0 3.391068
v 10.56138 4.059856 3.391068
v 12.36334 0 10.18597
v 12.36334 4.059856 10.18597
v 13.26434 0 13.00155
v 13.26434 4.059856 13.00155
v 14.09023 0 25.46516
v 13.56466 0 28.50598
v 14.09023 4.059856 25.46516
v 13.56466 4.059856 28.50598
v 9.360073 0 30.49565
v 9.360073 4.059856 30.49565
v 13.45203 0 23.43794
v 13.45203 4.059856 23.43794
v 13.63974 0 20.4722
v 13.63974 4.059856 20.4722
v 3.315979 0 33.38631
v 0.763195 0 34.96303
v 3.315979 4.059856 33.38631
v 0.763195 4.059856 34.96303
v -2.390244 0 34.55009
v -2.390244 4.059856 34.55009
v -6.256962 0 31.65944
v -6.256962 4.059856 31.65944
v 4.967781 0 31.92221
v 4.967781 4.059856 31.92221
v -11.58778 0 29.48206
v -14.10302 0 28.0555
v -11.58778 4.059856 29.48206
v -14.10302 4.059856 28.0555
v -14.66614 0 24.60173
v -14.66614 4.059856 24.60173
v 14.12778 0 17.7317
v 14.12778 4.059856 17.7317
v 14.91613 0 18.85793
v 14.91613 4.059856 18.85793

vt 19.90565 0
vt 16.92551 0
vt 19.90565 4.059856
vt 16.92551 4.059856
vt 18.37872 0
vt 14.40789 0
vt 18.37872 4.059856
vt 14.40789 4.059856
vt 19.55115 0
vt 14.05065 0
vt 19.55115 4.059856
vt 14.05065 4.059856
vt 14.19437 0
vt 11.6296 0
vt 14.19437 4.059856
vt 11.6296 4.059856
vt 8.446466 0
vt 2.848534 0
vt 8.446466 4.059856
vt 2.848534 4.059856
vt 11.87634 0
vt 7.869348 0
vt 11.87634 4.059856
vt 7.869348 4.059856
vt 8.325166 0
vt 5.212706 0
vt 8.325166 4.059856
vt 5.212706 4.059856
vt 1.607565 0
vt 0 0
vt 1.607565 4.059856
vt 0 4.059856
vt -5.242234 0
vt -5.242234 4.059856
vt 4.834445 0
vt 1.358325 0
vt 4.834445 4.059856
vt 1.358325 4.059856
vt 5.95859 0
vt 4.908266 0
vt 5.95859 4.059856
vt 4.908266 4.059856
vt -4.552284 0
vt -8.212287 0
vt -4.552284 4.059856
vt -8.212287 4.059856
vt -8.980721 0
vt -11.51939 0
vt -8.980721 4.059856
vt -11.51939 4.059856
vt -10.99874 0
vt -13.19865 0
vt -10.99874 4.059856
vt -13.19865 4.059856
vt -6.675378 0
vt -9.664545 0
vt -6.675378 4.059856
vt -9.664545 4.059856
vt -1.930577 0
vt -5.658305 0
vt -1.930577 4.059856
vt -5.658305 4.059856
vt -13.46944 0
vt -16.42566 0
vt -13.46944 4.059856
vt -16.42566 4.059856
vt -22.69334 0
vt -25.77925 0
vt -22.69334 4.059856
vt -25.77925 4.059856
vt 0.06799398 0
vt -4.583601 0
vt 0.06799398 4.059856
vt -4.583601 4.059856
vt -26.39572 0
vt -28.52102 0
vt -26.39572 4.059856
vt -28.52102 4.059856
vt -19.56977 0
vt -22.54144 0
vt -19.56977 4.059856
vt -22.54144 4.059856
vt -14.72305 0
vt -17.72351 0
vt -14.72305 4.059856
vt -17.72351 4.059856
vt 5.296284 0
vt 2.115925 0
vt 5.296284 4.059856
vt 2.115925 4.059856
vt 18.77263 0
vt 13.94486 0
vt 18.77263 4.059856
vt 13.94486 4.059856
vt -17.45661 0
vt -19.66388 0
vt -17.45661 4.059856
vt -19.66388 4.059856
vt 4.465259 0
vt 1.573633 0
vt 4.465259 4.059856
vt 1.573633 4.059856
vt 25.42041 0
vt 21.92104 0
vt 25.42041 4.059856
vt 21.92104 4.059856
vt 28.58025 0
vt 26.59909 0
vt 28.58025 4.059856
vt 26.59909 4.059856
vt 6.178853 0
vt 0.4205 0
vt 6.178853 4.059856
vt 0.4205 4.059856
vt -0.5178881 0
vt -5.136037 0
vt -0.5178881 4.059856
vt -5.136037 4.059856
vt -15.17212 0
vt -19.98043 0
vt -15.17212 4.059856
vt -19.98043 4.059856
vt -22.62812 0
vt -24.00285 0
vt -22.62812 4.059856
vt -24.00285 4.059856
vt -5.540994 0
vt -7.598912 0
vt -5.540994 4.059856
vt -7.598912 4.059856

vn -0.9980049 0 -0.06313661
vn -0.964326 0 0.2647176
vn -0.958129 0 -0.2863371
vn -0.6246947 0 -0.7808691
vn -0.9861132 0 0.1660749
vn 0.02726558 0 -0.9996282
vn -0.1052956 0 -0.994441
vn -0.2265139 0 -0.974008
vn 0.6397127 0 -0.7686142
vn -0.7123253 0 -0.7018495
vn -0.5546969 0 -0.8320526
vn 0.1743712 0 -0.98468
vn 0.9168351 0 -0.3992662
vn 0.4266161 0 -0.9044328
vn -0.2009438 0 -0.9796028
vn 0.9466501 0 0.3222631
vn 0.9524232 0 -0.3047786
vn 0.9853898 0 0.1703144
vn 0.4277394 0 0.9039022
vn 0.9538493 0 -0.3002856
vn 0.9980031 0 0.06316498
vn 0.5254933 0 0.8507978
vn -0.1298386 0 0.9915351
vn -0.5987554 0 0.800932
vn 0.6633072 0 0.7483472
vn -0.4933416 0 0.8698357
vn -0.9869675 0 0.1609198
vn -0.8906057 0 -0.4547763
vn -0.3781261 0 0.9257541
vn 0.3089029 0 0.9510936
vn 0.9837447 0 -0.1795725
vn 0.8192343 0 -0.573459
vn 0.784417 0 0.6202338

usemtl Lit
f 3/3/1 4/4/1 2/2/1 1/1/1
f 6/7/2 3/8/2 1/6/2 5/5/2
f 4/11/3 8/12/3 7/10/3 2/9/3
f 11/15/4 12/16/4 10/14/4 9/13/4
f 8/19/5 11/20/5 9/18/5 7/17/5
f 12/23/6 14/24/6 13/22/6 10/21/6
f 14/27/7 16/28/7 15/26/7 13/25/7
f 19/31/8 20/32/8 18/30/8 17/29/8
f 20/32/9 22/34/9 21/33/9 18/30/9
f 24/37/10 19/38/10 17/36/10 23/35/10
f 16/41/11 24/42/11 23/40/11 15/39/11
f 22/45/12 26/46/12 25/44/12 21/43/12
f 29/49/13 30/50/13 28/48/13 27/47/13
f 32/53/14 29/54/14 27/52/14 31/51/14
f 26/57/15 32/58/15 31/56/15 25/55/15
f 30/61/16 34/62/16 33/60/16 28/59/16
f 34/65/17 36/66/17 35/64/17 33/63/17
f 39/69/18 40/70/18 38/68/18 37/67/18
f 40/73/19 42/74/19 41/72/19 38/71/19
f 44/77/20 39/78/20 37/76/20 43/75/20
f 46/81/21 44/82/21 43/80/21 45/79/21
f 49/85/22 50/86/22 48/84/22 47/83/22
f 50/89/23 52/90/23 51/88/23 48/87/23
f 52/93/24 54/94/24 53/92/24 51/91/24
f 56/97/25 49/98/25 47/96/25 55/95/25
f 59/101/26 60/102/26 58/100/26 57/99/26
f 60/105/27 62/106/27 61/104/27 58/103/27
f 62/109/28 6/110/28 5/108/28 61/107/28
f 54/113/29 59/114/29 57/112/29 53/111/29
f 42/117/30 56/118/30 55/116/30 41/115/30
f 36/121/31 64/122/31 63/120/31 35/119/31
f 64/125/32 66/126/32 65/124/32 63/123/32
f 66/129/33 46/130/33 45/128/33 65/127/33

