# ProBuilder 5.0.7
# https://unity3d.com/unity/features/worldbuilding/probuilder
# 8/17/2023 2:34:58 PM

mtllib ./island5_collider1.mtl
o island5_collider1

g PolyShape
v 15.39565 0 23.70054
v 13.71732 0 23.9403
v 15.39565 5.528637 23.70054
v 13.71732 5.528637 23.9403
v 12.9381 0 22.4418
v 12.9381 5.528637 22.4418
v 16.53451 0 22.29195
v 16.53451 5.528637 22.29195
v 14.35184 0 18.22179
v 14.35184 5.528637 18.22179
v 12.21881 0 22.17207
v 12.21881 5.528637 22.17207
v 9.821201 0 24.71954
v 7.903114 0 24.68957
v 9.821201 5.528637 24.71954
v 7.903114 5.528637 24.68957
v 6.674339 0 21.63261
v 6.674339 5.528637 21.63261
v 7.153862 0 19.35488
v 7.153862 5.528637 19.35488
v -7.321716 0 10.48375
v -8.670368 0 10.09414
v -7.321716 5.528637 10.48375
v -8.670368 5.528637 10.09414
v -9.299744 0 8.086143
v -9.299744 5.528637 8.086143
v -7.921116 0 6.497726
v -7.921116 5.528637 6.497726
v -5.373657 0 7.516708
v -5.373657 5.528637 7.516708
v -7.501518 0 12.22202
v -7.501518 5.528637 12.22202
v 0.9800186 0 22.53172
v -2.646374 0 22.20203
v 0.9800186 5.528637 22.53172
v -2.646374 5.528637 22.20203
v -5.283737 0 19.92431
v -5.283737 5.528637 19.92431
v -7.141884 0 16.6276
v -7.141884 5.528637 16.6276
v -0.6383781 0 1.582626
v -0.6383781 5.528637 1.582626
v 0 0 0
v 0 5.528637 0
v 0.6669579 0 0.346817
v 0.6669579 5.528637 0.346817
v 12.17897 0 -7.527733
v 14.84643 0 -5.81295
v 12.17897 5.528637 -7.527733
v 14.84643 5.528637 -5.81295
v 8.717621 0 -7.083153
v 8.717621 5.528637 -7.083153
v 18.18076 0 -2.700912
v 18.18076 5.528637 -2.700912
v 21.95966 0 1.998901
v 21.95966 5.528637 1.998901
v 25.32836 0 10.28625
v 25.32836 5.528637 10.28625
v 17.85622 0 19.09064
v 17.85622 5.528637 19.09064
v 20.69447 0 18.94584
v 20.69447 5.528637 18.94584
v 26.2841 0 14.02233
v 26.2841 5.528637 14.02233
v 25.70486 0 16.59994
v 25.70486 5.528637 16.59994

vt 11.88914 0
vt 10.19378 0
vt 11.88914 5.528637
vt 10.19378 5.528637
vt 27.56876 0
vt 25.87976 0
vt 27.56876 5.528637
vt 25.87976 5.528637
vt -6.939178 0
vt -8.750565 0
vt -6.939178 5.528637
vt -8.750565 5.528637
vt -22.84111 0
vt -27.45958 0
vt -22.84111 5.528637
vt -27.45958 5.528637
vt 19.99412 0
vt 19.22592 0
vt 19.99412 5.528637
vt 19.22592 5.528637
vt 10.20617 0
vt 8.287853 0
vt 10.20617 5.528637
vt 8.287853 5.528637
vt 25.8557 0
vt 22.56103 0
vt 25.8557 5.528637
vt 22.56103 5.528637
vt -7.771402 0
vt -11.26971 0
vt -7.771402 5.528637
vt -11.26971 5.528637
vt 19.79359 0
vt 17.46594 0
vt 19.79359 5.528637
vt 17.46594 5.528637
vt -4.124423 0
vt -5.528224 0
vt -4.124423 5.528637
vt -5.528224 5.528637
vt 7.038889 0
vt 4.934569 0
vt 7.038889 5.528637
vt 4.934569 5.528637
vt 12.20254 0
vt 10.09928 0
vt 12.20254 5.528637
vt 10.09928 5.528637
vt 4.941381 0
vt 2.197685 0
vt 4.941381 5.528637
vt 2.197685 5.528637
vt 12.92898 0
vt 11.18143 0
vt 12.92898 5.528637
vt 11.18143 5.528637
vt 3.015977 0
vt -0.6253707 0
vt 3.015977 5.528637
vt -0.6253707 5.528637
vt 12.50886 0
vt 9.024079 0
vt 12.50886 5.528637
vt 9.024079 5.528637
vt -2.494573 0
vt -9.437816 0
vt -2.494573 5.528637
vt -9.437816 5.528637
vt 14.76271 0
vt 10.9784 0
vt 14.76271 5.528637
vt 10.9784 5.528637
vt 15.99141 0
vt 11.57117 0
vt 15.99141 5.528637
vt 11.57117 5.528637
vt 9.227069 0
vt 1.635218 0
vt 9.227069 5.528637
vt 1.635218 5.528637
vt 1.706527 0
vt 0 0
vt 1.706527 5.528637
vt 0 5.528637
vt -0.7517412 0
vt -0.7517412 5.528637
vt -6.174057 0
vt -9.34515 0
vt -6.174057 5.528637
vt -9.34515 5.528637
vt -9.548947 0
vt -13.03873 0
vt -9.548947 5.528637
vt -13.03873 5.528637
vt -0.2549108 0
vt -11.21017 0
vt -0.2549108 5.528637
vt -11.21017 5.528637
vt -6.887284 0
vt -11.44826 0
vt -6.887284 5.528637
vt -11.44826 5.528637
vt -9.287523 0
vt -15.31814 0
vt -9.287523 5.528637
vt -15.31814 5.528637
vt -10.12101 0
vt -19.06686 0
vt -10.12101 5.528637
vt -19.06686 5.528637
vt 21.92557 0
vt 18.31509 0
vt 21.92557 5.528637
vt 18.31509 5.528637
vt 19.70224 0
vt 16.86029 0
vt 19.70224 5.528637
vt 16.86029 5.528637
vt -16.24253 0
vt -20.09892 0
vt -16.24253 5.528637
vt -20.09892 5.528637
vt 16.24066 0
vt 10.70828 0
vt 16.24066 5.528637
vt 10.70828 5.528637
vt -7.918347 0
vt -10.56023 0
vt -7.918347 5.528637
vt -10.56023 5.528637

vn 0.1414216 0 0.9899494
vn -0.8872163 0 0.4613537
vn 0.7776276 0 0.6287252
vn 0.8812789 0 -0.4725965
vn -0.3511213 0 0.93633
vn -0.01562213 0 0.999878
vn -0.9278484 0 0.3729576
vn 0.7282013 0 0.6853634
vn -0.9785497 0 -0.2060111
vn -0.2775395 0 0.9607142
vn -0.9542257 0 0.2990875
vn -0.7552183 0 -0.6554733
vn 0.3713902 0 -0.9284769
vn -0.994693 0 -0.1028881
vn -0.0905383 0 0.995893
vn -0.6536202 0 0.7568227
vn 0.4575433 0 0.8891873
vn -0.8711519 0 0.4910136
vn -0.9966847 0 0.08136097
vn -0.7816384 0 -0.6237319
vn -0.9273963 0 -0.3740804
vn 0.4613516 0 -0.8872174
vn 0.5407545 0 -0.8411805
vn -0.1273947 0 -0.9918521
vn -0.6782106 0 -0.7348676
vn 0.6823181 0 -0.7310554
vn 0.7793256 0 -0.6266192
vn 0.92639 0 -0.3765655
vn -0.2406468 0 0.9706128
vn 0.05095307 0 0.998701
vn 0.968803 0 -0.2478322
vn 0.424031 0 0.9056477
vn 0.9756686 0 0.2192505

usemtl Lit
f 3/3/1 4/4/1 2/2/1 1/1/1
f 4/7/2 6/8/2 5/6/2 2/5/2
f 8/11/3 3/12/3 1/10/3 7/9/3
f 10/15/4 8/16/4 7/14/4 9/13/4
f 6/19/5 12/20/5 11/18/5 5/17/5
f 15/23/6 16/24/6 14/22/6 13/21/6
f 16/27/7 18/28/7 17/26/7 14/25/7
f 12/31/8 15/32/8 13/30/8 11/29/8
f 18/35/9 20/36/9 19/34/9 17/33/9
f 23/39/10 24/40/10 22/38/10 21/37/10
f 24/43/11 26/44/11 25/42/11 22/41/11
f 26/47/12 28/48/12 27/46/12 25/45/12
f 28/51/13 30/52/13 29/50/13 27/49/13
f 32/55/14 23/56/14 21/54/14 31/53/14
f 35/59/15 36/60/15 34/58/15 33/57/15
f 36/63/16 38/64/16 37/62/16 34/61/16
f 20/67/17 35/68/17 33/66/17 19/65/17
f 38/71/18 40/72/18 39/70/18 37/69/18
f 40/75/19 32/76/19 31/74/19 39/73/19
f 30/79/20 42/80/20 41/78/20 29/77/20
f 42/83/21 44/84/21 43/82/21 41/81/21
f 44/84/22 46/86/22 45/85/22 43/82/22
f 49/89/23 50/90/23 48/88/23 47/87/23
f 52/93/24 49/94/24 47/92/24 51/91/24
f 46/97/25 52/98/25 51/96/25 45/95/25
f 50/101/26 54/102/26 53/100/26 48/99/26
f 54/105/27 56/106/27 55/104/27 53/103/27
f 56/109/28 58/110/28 57/108/28 55/107/28
f 60/113/29 10/114/29 9/112/29 59/111/29
f 62/117/30 60/118/30 59/116/30 61/115/30
f 58/121/31 64/122/31 63/120/31 57/119/31
f 66/125/32 62/126/32 61/124/32 65/123/32
f 64/129/33 66/130/33 65/128/33 63/127/33

