# ProBuilder 5.0.7
# https://unity3d.com/unity/features/worldbuilding/probuilder
# 8/17/2023 2:40:08 PM

mtllib ./island6_collider1.mtl
o island6_collider1

g PolyShape
v 1.694115 0 38.27631
v -3.441154 0 37.42925
v 1.694115 4.390885 38.27631
v -3.441154 4.390885 37.42925
v -5.876434 0 34.57044
v -5.876434 4.390885 34.57044
v -5.982315 0 28.85282
v -5.982315 4.390885 28.85282
v 5.823509 0 36.10573
v 5.823509 4.390885 36.10573
v 7.147034 0 31.71163
v 7.147034 4.390885 31.71163
v 7.676445 0 28.694
v 7.676445 4.390885 28.694
v -6.882309 0 26.894
v -6.882309 4.390885 26.894
v 9.370575 0 26.84106
v 9.317635 0 28.16458
v 9.370575 4.390885 26.84106
v 9.317635 4.390885 28.16458
v -17.89404 0 21.44109
v -17.3117 0 16.09405
v -17.89404 4.390885 21.44109
v -17.3117 4.390885 16.09405
v -14.92934 0 24.24696
v -14.92934 4.390885 24.24696
v -13.92348 0 13.49994
v -13.92348 4.390885 13.49994
v -11.48817 0 25.78225
v -11.48817 4.390885 25.78225
v -7.041153 0 11.85878
v -7.041153 4.390885 11.85878
v -4.552925 0 3.123516
v 0 0 0
v -4.552925 4.390885 3.123516
v 0 4.390885 0
v 1.641197 0 0.1588116
v 1.641197 4.390885 0.1588116
v 6.088234 0 3.28233
v 6.088234 4.390885 3.28233
v 7.199989 0 8.470543
v 7.199989 4.390885 8.470543
v 7.464699 0 12.17641
v 7.464699 4.390885 12.17641
v 12.59997 0 12.91758
v 12.59997 4.390885 12.91758
v 15.40585 0 24.08813
v 15.40585 4.390885 24.08813
v 16.25289 0 14.55875
v 16.25289 4.390885 14.55875
v 18.47642 0 17.4705
v 18.47642 4.390885 17.4705
v 18.58231 0 20.11755
v 18.58231 4.390885 20.11755

vt 7.90096 0
vt 2.6963 0
vt 7.90096 4.390885
vt 2.6963 4.390885
vt 26.26131 0
vt 22.50586 0
vt 26.26131 4.390885
vt 22.50586 4.390885
vt 34.45571 0
vt 28.73711 0
vt 34.45571 4.390885
vt 28.73711 4.390885
vt -11.64445 0
vt -16.30957 0
vt -11.64445 4.390885
vt -16.30957 4.390885
vt -28.3029 0
vt -32.89199 0
vt -28.3029 4.390885
vt -32.89199 4.390885
vt -26.93586 0
vt -29.99958 0
vt -26.93586 4.390885
vt -29.99958 4.390885
vt 23.72029 0
vt 21.56462 0
vt 23.72029 4.390885
vt 21.56462 4.390885
vt -26.44509 0
vt -27.76967 0
vt -26.44509 4.390885
vt -27.76967 4.390885
vt 0.2210825 0
vt -1.503384 0
vt 0.2210825 4.390885
vt -1.503384 4.390885
vt 23.2524 0
vt 17.87375 0
vt 23.2524 4.390885
vt 17.87375 4.390885
vt 5.823905 0
vt 1.741949 0
vt 5.823905 4.390885
vt 1.741949 4.390885
vt 23.52933 0
vt 19.26208 0
vt 23.52933 4.390885
vt 19.26208 4.390885
vt 0.01338938 0
vt -3.754727 0
vt 0.01338938 4.390885
vt -3.754727 4.390885
vt 16.67514 0
vt 9.599842 0
vt 16.67514 4.390885
vt 9.599842 4.390885
vt -0.3797547 0
vt -5.117898 0
vt -0.3797547 4.390885
vt -5.117898 4.390885
vt 5.521366 0
vt 0 0
vt 5.521366 4.390885
vt 0 4.390885
vt -1.648863 0
vt -1.648863 4.390885
vt -1.434297 0
vt -6.868678 0
vt -1.434297 4.390885
vt -6.868678 4.390885
vt -4.485127 0
vt -9.791121 0
vt -4.485127 4.390885
vt -9.791121 4.390885
vt 13.33403 0
vt 4.251302 0
vt 13.33403 4.390885
vt 4.251302 4.390885
vt -8.962004 0
vt -12.67731 0
vt -8.962004 4.390885
vt -12.67731 4.390885
vt -9.127548 0
vt -14.31603 0
vt -9.127548 4.390885
vt -14.31603 4.390885
vt 4.019837 0
vt -2.613647 0
vt 4.019837 4.390885
vt -2.613647 4.390885
vt -16.78711 0
vt -20.79177 0
vt -16.78711 4.390885
vt -20.79177 4.390885
vt -21.43493 0
vt -25.09859 0
vt -21.43493 4.390885
vt -25.09859 4.390885
vt -18.19511 0
vt -20.84427 0
vt -18.19511 4.390885
vt -20.84427 4.390885
vt -4.100853 0
vt -9.185674 0
vt -4.100853 4.390885
vt -9.185674 4.390885

vn -0.1627491 0 0.9866675
vn -0.7612436 0 0.648466
vn -0.9998286 0 0.01851515
vn 0.4652784 0 0.8851644
vn 0.9575082 0 0.2884061
vn 0.9849569 0 0.1728002
vn -0.9086773 0 0.4174991
vn 0.999201 0 0.03996758
vn 0.3070023 0 0.9517088
vn -0.9941218 0 -0.1082681
vn -0.6873846 0 0.7262936
vn -0.6079107 0 -0.7940055
vn -0.4074413 0 0.9132314
vn -0.2319573 0 -0.972726
vn -0.2346402 0 0.9720823
vn -0.5657144 0 -0.8246013
vn 0.0963158 0 -0.9953508
vn 0.5747698 0 -0.8183152
vn 0.9778026 0 -0.2095283
vn -0.9617435 0 -0.2739514
vn 0.9974586 0 -0.07124837
vn 0.1428504 0 -0.9897443
vn 0.4150051 0 0.9098191
vn 0.4098145 0 -0.9121689
vn 0.7947673 0 -0.6069143
vn 0.9992008 0 -0.03997333
vn 0.7808679 0 0.6246961

usemtl Lit
f 3/3/1 4/4/1 2/2/1 1/1/1
f 4/7/2 6/8/2 5/6/2 2/5/2
f 6/11/3 8/12/3 7/10/3 5/9/3
f 10/15/4 3/16/4 1/14/4 9/13/4
f 12/19/5 10/20/5 9/18/5 11/17/5
f 14/23/6 12/24/6 11/22/6 13/21/6
f 8/27/7 16/28/7 15/26/7 7/25/7
f 19/31/8 20/32/8 18/30/8 17/29/8
f 20/35/9 14/36/9 13/34/9 18/33/9
f 23/39/10 24/40/10 22/38/10 21/37/10
f 26/43/11 23/44/11 21/42/11 25/41/11
f 24/47/12 28/48/12 27/46/12 22/45/12
f 30/51/13 26/52/13 25/50/13 29/49/13
f 28/55/14 32/56/14 31/54/14 27/53/14
f 16/59/15 30/60/15 29/58/15 15/57/15
f 35/63/16 36/64/16 34/62/16 33/61/16
f 36/64/17 38/66/17 37/65/17 34/62/17
f 38/69/18 40/70/18 39/68/18 37/67/18
f 40/73/19 42/74/19 41/72/19 39/71/19
f 32/77/20 35/78/20 33/76/20 31/75/20
f 42/81/21 44/82/21 43/80/21 41/79/21
f 44/85/22 46/86/22 45/84/22 43/83/22
f 48/89/23 19/90/23 17/88/23 47/87/23
f 46/93/24 50/94/24 49/92/24 45/91/24
f 50/97/25 52/98/25 51/96/25 49/95/25
f 52/101/26 54/102/26 53/100/26 51/99/26
f 54/105/27 48/106/27 47/104/27 53/103/27

