# ProBuilder 5.0.7
# https://unity3d.com/unity/features/worldbuilding/probuilder
# 8/17/2023 2:29:44 PM

mtllib ./island3_collider1.mtl
o island3_collider1

g PolyShape
v 9.731705 -1.351058 7.433187
v 10.40842 -1.351058 7.79145
v 9.731705 3.237607 7.433187
v 10.40842 3.237607 7.79145
v 10.24919 -1.351058 8.707011
v 10.24919 3.237607 8.707011
v -4.155472 -1.351058 -0.06738567
v -4.088081 -1.351058 -0.6738596
v -4.155472 3.237607 -0.06738567
v -4.088081 3.237607 -0.6738596
v -3.054832 -1.351058 -0.6963224
v -3.054832 3.237607 -0.6963224
v -2.605591 -1.351058 -0.04492474
v -2.605591 3.237607 -0.04492474
v -4.941643 -1.351058 0.9209414
v -4.941643 3.237607 0.9209414
v -4.425003 -1.351058 3.122217
v -4.425003 3.237607 3.122217
v -1.190483 -1.351058 0.2470827
v -1.190483 3.237607 0.2470827
v -2.650505 -1.351058 6.266898
v -2.650505 3.237607 6.266898
v -0.6289368 -1.351058 -0.2021589
v -0.6289368 3.237607 -0.2021589
v 0 -1.351058 9.536743E-07
v 0 3.237607 9.536743E-07
v -1.662201 -1.351058 7.996469
v -2.717911 -1.351058 8.310937
v -1.662201 3.237607 7.996469
v -2.717911 3.237607 8.310937
v -3.257004 -1.351058 7.524766
v -3.257004 3.237607 7.524766
v 6.188858 -1.351058 3.532094
v 6.188858 3.237607 3.532094
v 0.4941559 -1.351058 12.30917
v 0.4941559 3.237607 12.30917
v 9.1744 -1.351058 5.721482
v 9.1744 3.237607 5.721482
v 11.92109 -1.351058 10.25949
v 11.92109 3.237607 10.25949
v 0.1572113 -1.351058 15.18431
v 0.1572113 3.237607 15.18431
v 0.9543533 -1.351058 33.95715
v -1.592094 -1.351058 34.13157
v 0.9543533 3.237607 33.95715
v -1.592094 3.237607 34.13157
v -3.929245 -1.351058 33.64322
v -3.929245 3.237607 33.64322
v 6.744904 -1.351058 31.13165
v 7.128616 -1.351058 31.96883
v 6.744904 3.237607 31.13165
v 7.128616 3.237607 31.96883
v 5.907715 -1.351058 32.63161
v 5.907715 3.237607 32.63161
v 3.535683 -1.351058 34.16645
v 1.338066 -1.351058 34.68969
v 3.535683 3.237607 34.16645
v 1.338066 3.237607 34.68969
v -5.708267 -1.351058 35.07341
v -8.115181 -1.351058 35.42224
v -5.708267 3.237607 35.07341
v -8.115181 3.237607 35.42224
v -8.95237 -1.351058 33.50368
v -8.95237 3.237607 33.50368
v -10.27792 -1.351058 33.64322
v -10.27792 3.237607 33.64322
v -12.89412 -1.351058 32.35254
v -12.89412 3.237607 32.35254
v -14.70802 -1.351058 28.02707
v -14.70802 3.237607 28.02707
v -10.54289 -1.351058 19.51601
v -8.801781 -1.351058 19.35529
v -10.54289 3.237607 19.51601
v -8.801781 3.237607 19.35529
v -8.602966 -1.351058 19.90133
v -8.602966 3.237607 19.90133
v -19.24277 -1.351058 25.27132
v -19.06833 -1.351058 24.57366
v -19.24277 3.237607 25.27132
v -19.06833 3.237607 24.57366
v -20.77759 -1.351058 21.92257
v -21.89383 -1.351058 19.02731
v -20.77759 3.237607 21.92257
v -21.89383 3.237607 19.02731
v -21.92871 -1.351058 16.16692
v -21.92871 3.237607 16.16692
v -22.31242 -1.351058 15.46926
v -21.61478 -1.351058 14.28325
v -22.31242 3.237607 15.46926
v -21.61478 3.237607 14.28325
v -16.66144 -1.351058 7.550876
v -14.84753 -1.351058 9.155484
v -16.66144 3.237607 7.550876
v -14.84753 3.237607 9.155484
v -17.7428 -1.351058 8.248527
v -17.7428 3.237607 8.248527
v -14.42894 -1.351058 10.72521
v -14.42894 3.237607 10.72521
v -14.88242 -1.351058 12.67865
v -14.88242 3.237607 12.67865
v -18.92882 -1.351058 8.597356
v -18.92882 3.237607 8.597356
v -20.28925 -1.351058 8.143878
v -19.24277 -1.351058 7.899699
v -20.28925 3.237607 8.143878
v -19.24277 3.237607 7.899699
v -20.28925 -1.351058 9.504308
v -20.28925 3.237607 9.504308
v -21.57991 -1.351058 9.64384
v -21.57991 3.237607 9.64384
v -21.30084 -1.351058 10.86474
v -21.30084 3.237607 10.86474
v -14.77777 -1.351058 14.00419
v -14.77777 3.237607 14.00419
v -14.04494 -1.351058 14.30844
v -14.04494 3.237607 14.30844
v -14.31976 -1.351058 15.23019
v -14.31976 3.237607 15.23019
v -13.30188 -1.351058 18.20348
v -13.30188 3.237607 18.20348
v -3.908401 -1.351058 19.90133
v -3.908401 3.237607 19.90133
v -2.246216 -1.351058 19.42963
v -2.246216 3.237607 19.42963
v 11.8378 -1.351058 26.00388
v 11.8378 3.237607 26.00388
v 13.05869 -1.351058 21.92259
v 13.05869 3.237607 21.92259
v 13.33775 -1.351058 19.16685
v 13.33775 3.237607 19.16685
v 13.68658 -1.351058 14.77162
v 13.68658 3.237607 14.77162
v 13.59299 -1.351058 13.04598
v 13.59299 3.237607 13.04598
v 14.34936 -1.351058 13.86467
v 14.34936 3.237607 13.86467

vt -12.07866 -1.351058
vt -12.84436 -1.351058
vt -12.07866 3.237607
vt -12.84436 3.237607
vt -5.892775 -1.351058
vt -6.82208 -1.351058
vt -5.892775 3.237607
vt -6.82208 3.237607
vt 0.3919516 -1.351058
vt -0.218255 -1.351058
vt 0.3919516 3.237607
vt -0.218255 3.237607
vt 4.072469 -1.351058
vt 3.038976 -1.351058
vt 4.072469 3.237607
vt 3.038976 3.237607
vt 2.307555 -1.351058
vt 1.516266 -1.351058
vt 2.307555 3.237607
vt 1.516266 3.237607
vt 3.797023 -1.351058
vt 2.534147 -1.351058
vt 3.797023 3.237607
vt 2.534147 3.237607
vt 2.028547 -1.351058
vt -0.2325439 -1.351058
vt 2.028547 3.237607
vt -0.2325439 3.237607
vt 2.560907 -1.351058
vt 1.115986 -1.351058
vt 2.560907 3.237607
vt 1.115986 3.237607
vt 4.155336 -1.351058
vt 0.5445383 -1.351058
vt 4.155336 3.237607
vt 0.5445383 3.237607
vt 1.08396 -1.351058
vt 0.3648266 -1.351058
vt 1.08396 3.237607
vt 0.3648266 3.237607
vt 0.6606283 -1.351058
vt -2.918352E-07 -1.351058
vt 0.6606283 3.237607
vt -2.918352E-07 3.237607
vt -3.875844 -1.351058
vt -4.977395 -1.351058
vt -3.875844 3.237607
vt -4.977395 3.237607
vt 5.317188 -1.351058
vt 4.363938 -1.351058
vt 5.317188 3.237607
vt 4.363938 3.237607
vt 8.192582 -1.351058
vt 6.796132 -1.351058
vt 8.192582 3.237607
vt 6.796132 3.237607
vt -7.125844 -1.351058
vt -7.125844 3.237607
vt 11.23065 -1.351058
vt 6.408896 -1.351058
vt 11.23065 3.237607
vt 6.408896 3.237607
vt -7.07948 -1.351058
vt -10.78176 -1.351058
vt -7.07948 3.237607
vt -10.78176 3.237607
vt -8.28068 -1.351058
vt -10.08082 -1.351058
vt -8.28068 3.237607
vt -10.08082 3.237607
vt -13.43524 -1.351058
vt -15.71678 -1.351058
vt -13.43524 3.237607
vt -15.71678 3.237607
vt 15.0628 -1.351058
vt 12.16799 -1.351058
vt 15.0628 3.237607
vt 12.16799 3.237607
vt -1.368342 -1.351058
vt -3.920756 -1.351058
vt -1.368342 3.237607
vt -3.920756 3.237607
vt 5.422724 -1.351058
vt 3.035096 -1.351058
vt 5.422724 3.237607
vt 3.035096 3.237607
vt -31.11097 -1.351058
vt -32.03191 -1.351058
vt -31.11097 3.237607
vt -32.03191 3.237607
vt -8.987022 -1.351058
vt -10.37622 -1.351058
vt -8.987022 3.237607
vt -10.37622 3.237607
vt -4.474131 -1.351058
vt -6.73318 -1.351058
vt -4.474131 3.237607
vt -6.73318 3.237607
vt 31.35008 -1.351058
vt 30.52312 -1.351058
vt 31.35008 3.237607
vt 30.52312 3.237607
vt -12.76721 -1.351058
vt -15.59251 -1.351058
vt -12.76721 3.237607
vt -15.59251 3.237607
vt -10.67984 -1.351058
vt -13.1119 -1.351058
vt -10.67984 3.237607
vt -13.1119 3.237607
vt 29.22025 -1.351058
vt 27.12699 -1.351058
vt 29.22025 3.237607
vt 27.12699 3.237607
vt -24.14172 -1.351058
vt -26.42434 -1.351058
vt -24.14172 3.237607
vt -26.42434 3.237607
vt -12.41057 -1.351058
vt -13.74344 -1.351058
vt -12.41057 3.237607
vt -13.74344 3.237607
vt 5.667488 -1.351058
vt 2.750233 -1.351058
vt 5.667488 3.237607
vt 2.750233 3.237607
vt 24.84883 -1.351058
vt 20.15843 -1.351058
vt 24.84883 3.237607
vt 20.15843 3.237607
vt 12.2921 -1.351058
vt 10.54359 -1.351058
vt 12.2921 3.237607
vt 10.54359 3.237607
vt -15.1759 -1.351058
vt -15.757 -1.351058
vt -15.1759 3.237607
vt -15.757 3.237607
vt 29.18424 -1.351058
vt 28.46511 -1.351058
vt 29.18424 3.237607
vt 28.46511 3.237607
vt 1.98598 -1.351058
vt -3.320436 -1.351058
vt 1.98598 3.237607
vt -3.320436 3.237607
vt 12.98063 -1.351058
vt 9.877647 -1.351058
vt 12.98063 3.237607
vt 9.877647 3.237607
vt 18.75893 -1.351058
vt 15.89832 -1.351058
vt 18.75893 3.237607
vt 15.89832 3.237607
vt 24.64628 -1.351058
vt 23.27029 -1.351058
vt 24.64628 3.237607
vt 23.27029 3.237607
vt 3.597792 -1.351058
vt 2.801577 -1.351058
vt 3.597792 3.237607
vt 2.801577 3.237607
vt 7.47634 -1.351058
vt 5.054561 -1.351058
vt 7.47634 3.237607
vt 5.054561 3.237607
vt 19.38096 -1.351058
vt 18.09408 -1.351058
vt 19.38096 3.237607
vt 18.09408 3.237607
vt -5.020689 -1.351058
vt -6.64527 -1.351058
vt -5.020689 3.237607
vt -6.64527 3.237607
vt -13.71021 -1.351058
vt -15.71559 -1.351058
vt -13.71021 3.237607
vt -15.71559 3.237607
vt 20.58554 -1.351058
vt 19.34929 -1.351058
vt 20.58554 3.237607
vt 19.34929 3.237607
vt 21.60904 -1.351058
vt 20.53445 -1.351058
vt 21.60904 3.237607
vt 20.53445 3.237607
vt 0.6927477 -1.351058
vt -0.0722943 -1.351058
vt 0.6927477 3.237607
vt -0.0722943 3.237607
vt 9.504308 -1.351058
vt 8.143878 -1.351058
vt 9.504308 3.237607
vt 8.143878 3.237607
vt 22.49144 -1.351058
vt 21.19325 -1.351058
vt 22.49144 3.237607
vt 21.19325 3.237607
vt 5.845124 -1.351058
vt 4.592738 -1.351058
vt 5.845124 3.237607
vt 4.592738 3.237607
vt 16.20005 -1.351058
vt 12.76715 -1.351058
vt 16.20005 3.237607
vt 12.76715 3.237607
vt -11.46808 -1.351058
vt -12.79775 -1.351058
vt -11.46808 3.237607
vt -12.79775 3.237607
vt 8.278653 -1.351058
vt 7.485173 -1.351058
vt 8.278653 3.237607
vt 7.485173 3.237607
vt -17.72495 -1.351058
vt -18.6868 -1.351058
vt -17.72495 3.237607
vt -18.6868 3.237607
vt -9.771195 -1.351058
vt -12.91389 -1.351058
vt -9.771195 3.237607
vt -12.91389 3.237607
vt 10.32049 -1.351058
vt 7.166153 -1.351058
vt 10.32049 3.237607
vt 7.166153 3.237607
vt 4.191791 -1.351058
vt 1.136509 -1.351058
vt 4.191791 3.237607
vt 1.136509 3.237607
vt 8.602966 -1.351058
vt 3.908401 -1.351058
vt 8.602966 3.237607
vt 3.908401 3.237607
vt 9.193082 -1.351058
vt 7.465261 -1.351058
vt 9.193082 3.237607
vt 7.465261 3.237607
vt -10.10817 -1.351058
vt -17.33532 -1.351058
vt -10.10817 3.237607
vt -17.33532 3.237607
vt -17.26041 -1.351058
vt -21.52039 -1.351058
vt -17.26041 3.237607
vt -21.52039 3.237607
vt 18.01468 -1.351058
vt 13.13624 -1.351058
vt 18.01468 3.237607
vt 13.13624 3.237607
vt -17.72555 -1.351058
vt -20.49538 -1.351058
vt -17.72555 3.237607
vt -20.49538 3.237607
vt -13.64247 -1.351058
vt -18.05153 -1.351058
vt -13.64247 3.237607
vt -18.05153 3.237607
vt -14.93079 -1.351058
vt -18.18037 -1.351058
vt -14.93079 3.237607
vt -18.18037 3.237607
vt -18.80658 -1.351058
vt -19.92118 -1.351058
vt -18.80658 3.237607
vt -19.92118 3.237607
vt -2.727841 -1.351058
vt -3.851153 -1.351058
vt -2.727841 3.237607
vt -3.851153 3.237607

vn 0.4678874 0 -0.8837881
vn 0.9852108 0 0.1713464
vn -0.993883 0 -0.1104387
vn -0.02173488 0 -0.9997638
vn 0.8232117 0 -0.5677345
vn -0.7826004 0 -0.6225244
vn -0.973546 0 0.2284914
vn 0.2020922 0 -0.9793665
vn -0.8709103 0 0.4914421
vn -0.6246989 0 -0.7808657
vn 0.3060114 0 -0.9520279
vn 0.2854779 0 0.9583853
vn -0.8247268 0 0.5655315
vn -0.9007612 0 -0.4343147
vn 0.4956737 0 -0.8685088
vn -0.8944268 0 0.4472144
vn 0.591362 0 -0.8064062
vn 0.9508706 0 -0.3095887
vn 0.6804512 0 -0.7327935
vn -0.9932029 0 -0.116396
vn 0.06833507 0 0.9976624
vn -0.2045367 0 0.9788589
vn 0.9090643 0 -0.4166558
vn 0.4770908 0 0.878854
vn 0.2316209 0 0.9728062
vn -0.8858309 0 0.4640082
vn 0.543251 0 0.8395703
vn 0.1434303 0 0.9896604
vn -0.9165393 0 0.3999447
vn 0.626556 0 0.7793764
vn 0.1046869 0 0.9945052
vn -0.4424296 0 0.8968032
vn -0.9221945 0 0.3867264
vn -0.09191637 0 -0.9957668
vn 0.9396527 0 -0.3421299
vn -0.9701347 0 -0.2425668
vn -0.5193239 0 0.8545775
vn -0.9330559 0 0.3597313
vn -0.9999257 0 0.01219379
vn -0.8619369 0 -0.5070156
vn -0.8762148 0 0.4819208
vn 0.6625742 0 -0.7489963
vn -0.5421265 0 -0.8402969
vn 0.9662349 0 -0.257663
vn 0.9740973 0 0.2261296
vn -0.2821663 0 -0.9593655
vn -0.2272301 0 -0.9738411
vn 0.9119195 0 -0.4103691
vn -1 0 0
vn -0.1074824 0 -0.994207
vn -0.9748575 0 0.2228291
vn -0.9958098 0 -0.09144881
vn 0.9968984 0 -0.07869979
vn 0.3834312 0 -0.9235694
vn 0.9583111 0 0.2857267
vn 0.9460951 0 -0.3238889
vn -0.8404589 0 0.5418754
vn 0.4295939 0 -0.9030222
vn 0 0 -1
vn -0.2730044 0 -0.9620128
vn 0.7095154 0 0.70469
vn 0.9580516 0 0.2865957
vn -0.8702202 0 -0.4926629
vn 0.9949118 0 0.10075
vn 0.9968653 0 0.07911702
vn 0.8574927 0 -0.5144961
vn 0.7345079 0 -0.6786002
vn 0.8073908 0 0.5900169

usemtl Lit
f 3/3/1 4/4/1 2/2/1 1/1/1
f 4/7/2 6/8/2 5/6/2 2/5/2
f 9/11/3 10/12/3 8/10/3 7/9/3
f 10/15/4 12/16/4 11/14/4 8/13/4
f 12/19/5 14/20/5 13/18/5 11/17/5
f 16/23/6 9/24/6 7/22/6 15/21/6
f 18/27/7 16/28/7 15/26/7 17/25/7
f 14/31/8 20/32/8 19/30/8 13/29/8
f 22/35/9 18/36/9 17/34/9 21/33/9
f 20/39/10 24/40/10 23/38/10 19/37/10
f 24/43/11 26/44/11 25/42/11 23/41/11
f 29/47/12 30/48/12 28/46/12 27/45/12
f 30/51/13 32/52/13 31/50/13 28/49/13
f 32/55/14 22/56/14 21/54/14 31/53/14
f 26/44/15 34/58/15 33/57/15 25/42/15
f 36/61/16 29/62/16 27/60/16 35/59/16
f 34/65/17 38/66/17 37/64/17 33/63/17
f 38/69/18 3/70/18 1/68/18 37/67/18
f 6/73/19 40/74/19 39/72/19 5/71/19
f 42/77/20 36/78/20 35/76/20 41/75/20
f 45/81/21 46/82/21 44/80/21 43/79/21
f 46/85/22 48/86/22 47/84/22 44/83/22
f 51/89/23 52/90/23 50/88/23 49/87/23
f 52/93/24 54/94/24 53/92/24 50/91/24
f 57/97/25 58/98/25 56/96/25 55/95/25
f 58/101/26 45/102/26 43/100/26 56/99/26
f 54/105/27 57/106/27 55/104/27 53/103/27
f 61/109/28 62/110/28 60/108/28 59/107/28
f 62/113/29 64/114/29 63/112/29 60/111/29
f 48/117/30 61/118/30 59/116/30 47/115/30
f 64/121/31 66/122/31 65/120/31 63/119/31
f 66/125/32 68/126/32 67/124/32 65/123/32
f 68/129/33 70/130/33 69/128/33 67/127/33
f 73/133/34 74/134/34 72/132/34 71/131/34
f 74/137/35 76/138/35 75/136/35 72/135/35
f 79/141/36 80/142/36 78/140/36 77/139/36
f 70/145/37 79/146/37 77/144/37 69/143/37
f 83/149/38 84/150/38 82/148/38 81/147/38
f 84/153/39 86/154/39 85/152/39 82/151/39
f 89/157/40 90/158/40 88/156/40 87/155/40
f 86/161/41 89/162/41 87/160/41 85/159/41
f 93/165/42 94/166/42 92/164/42 91/163/42
f 96/169/43 93/170/43 91/168/43 95/167/43
f 94/173/44 98/174/44 97/172/44 92/171/44
f 98/177/45 100/178/45 99/176/45 97/175/45
f 102/181/46 96/182/46 95/180/46 101/179/46
f 105/185/47 106/186/47 104/184/47 103/183/47
f 106/189/48 102/190/48 101/188/48 104/187/48
f 108/193/49 105/194/49 103/192/49 107/191/49
f 110/197/50 108/198/50 107/196/50 109/195/50
f 112/201/51 110/202/51 109/200/51 111/199/51
f 90/205/52 112/206/52 111/204/52 88/203/52
f 100/209/53 114/210/53 113/208/53 99/207/53
f 114/213/54 116/214/54 115/212/54 113/211/54
f 116/217/55 118/218/55 117/216/55 115/215/55
f 118/221/56 120/222/56 119/220/56 117/219/56
f 80/225/57 83/226/57 81/224/57 78/223/57
f 120/229/58 73/230/58 71/228/58 119/227/58
f 76/233/59 122/234/59 121/232/59 75/231/59
f 122/237/60 124/238/60 123/236/60 121/235/60
f 126/241/61 51/242/61 49/240/61 125/239/61
f 128/245/62 126/246/62 125/244/62 127/243/62
f 124/249/63 42/250/63 41/248/63 123/247/63
f 130/253/64 128/254/64 127/252/64 129/251/64
f 132/257/65 130/258/65 129/256/65 131/255/65
f 40/261/66 134/262/66 133/260/66 39/259/66
f 134/265/67 136/266/67 135/264/67 133/263/67
f 136/269/68 132/270/68 131/268/68 135/267/68

