# ProBuilder 5.0.7
# https://unity3d.com/unity/features/worldbuilding/probuilder
# 8/17/2023 2:14:29 PM

mtllib ./island1_collider1.mtl
o island1_collider1

g PolyShape
v -10.18501 0 14.86481
v -5.746868 0 12.75727
v -7.110424 0 14.78222
v -5.790359 0 11.41435
v -27.72008 0 18.91753
v -18.24636 0 19.23023
v -22.43982 0 20.14524
v -44.12508 0 15.47765
v -42.73952 0 13.74633
v -42.51181 0 19.30837
v -35.51653 0 18.5706
v -34.49059 0 15.53083
v -7.526833 -1.907349E-06 -11.35495
v -6.462219 -1.907349E-06 -7.80624
v -10.23028 -1.907349E-06 -15.31879
v -51.26456 0 5.084534
v -50.00419 0 8.39053
v -48.82553 0 -9.578709
v -49.6877 0 -10.82322
v -46.06662 0 -17.41624
v -42.43066 0 -21.41062
v -37.11996 0 -24.57196
v -30.4256 0 -26.08722
v -23.39711 0 -24.47788
v -12.34657 -1.907349E-06 -21.51796
v -9.105373 -1.907349E-06 -16.84867
v -11.75632 -1.907349E-06 -25.81068
v -10.7368 -1.907349E-06 -23.23505
v -15.78075 -1.907349E-06 -24.52286
v -17.6002 0 -27.70749
v -4.615719 -1.907349E-06 -3.598175
v -3.882202 0 -0.8105698
v -4.41552 0 10.0326
v -1.534515 0 6.348293
v -0.9184303 0 4.014793
v -2.879654 0 -0.5972633
v -0.2133064 0 -0.9598846
v 0 0 0
v -1.983761 0 -1.471825
v 0.8910141 0 0.2511253
v 1.153759 0 1.791786
v -5.746868 11.62293 12.75727
v -7.110424 11.62293 14.78222
v -10.18501 11.62293 14.86481
v -5.790359 11.62293 11.41435
v -18.24636 11.62293 19.23023
v -22.43982 11.62293 20.14524
v -27.72008 11.62293 18.91753
v -44.12508 11.62293 15.47765
v -42.73952 11.62293 13.74633
v -42.51181 11.62293 19.30837
v -35.51653 11.62293 18.5706
v -34.49059 11.62293 15.53083
v -7.526833 11.62293 -11.35495
v -6.462219 11.62293 -7.806241
v -10.23028 11.62293 -15.31879
v -50.00419 11.62293 8.39053
v -51.26456 11.62293 5.084533
v -48.82553 11.62293 -9.578709
v -49.6877 11.62293 -10.82322
v -46.06662 11.62293 -17.41624
v -42.43066 11.62293 -21.41062
v -37.11996 11.62293 -24.57196
v -30.4256 11.62293 -26.08722
v -23.39711 11.62293 -24.47788
v -12.34657 11.62293 -21.51796
v -9.105373 11.62293 -16.84867
v -11.75632 11.62293 -25.81068
v -10.7368 11.62293 -23.23505
v -15.78075 11.62293 -24.52286
v -17.6002 11.62293 -27.70749
v -4.615719 11.62293 -3.598175
v -3.882202 11.62293 -0.8105701
v -4.41552 11.62293 10.0326
v -1.534515 11.62293 6.348293
v -0.9184302 11.62293 4.014793
v -2.879654 11.62293 -0.5972636
v -0.2133063 11.62293 -0.9598849
v 1.472623E-07 11.62293 -2.889419E-07
v -1.983761 11.62293 -1.471825
v 0.8910142 11.62293 0.251125
v 1.153759 11.62293 1.791786

vt -10.18501 14.86481
vt -5.746868 12.75727
vt -7.110424 14.78222
vt -5.790359 11.41435
vt -27.72008 18.91753
vt -18.24636 19.23023
vt -22.43982 20.14524
vt -44.12508 15.47765
vt -42.73952 13.74633
vt -42.51181 19.30837
vt -35.51653 18.5706
vt -34.49059 15.53083
vt -7.526833 -11.35495
vt -6.462219 -7.80624
vt -10.23028 -15.31879
vt -51.26456 5.084534
vt -50.00419 8.39053
vt -48.82553 -9.578709
vt -49.6877 -10.82322
vt -46.06662 -17.41624
vt -42.43066 -21.41062
vt -37.11996 -24.57196
vt -30.4256 -26.08722
vt -23.39711 -24.47788
vt -12.34657 -21.51796
vt -9.105373 -16.84867
vt -11.75632 -25.81068
vt -10.7368 -23.23505
vt -15.78075 -24.52286
vt -17.6002 -27.70749
vt -4.615719 -3.598175
vt -3.882202 -0.8105698
vt -4.41552 10.0326
vt -1.534515 6.348293
vt -0.9184303 4.014793
vt -2.879654 -0.5972633
vt -0.2133064 -0.9598846
vt 0 0
vt -1.983761 -1.471825
vt 0.8910141 0.2511253
vt 1.153759 1.791786
vt -13.7917 0
vt -16.23295 0
vt -13.7917 11.62293
vt -16.23295 11.62293
vt -7.504827 0
vt -10.58052 0
vt -7.504827 11.62293
vt -10.58052 11.62293
vt -11.22095 0
vt -12.56457 0
vt -11.22095 11.62293
vt -12.56457 11.62293
vt -21.92647 0
vt -26.21859 0
vt -21.92647 11.62293
vt -26.21859 11.62293
vt -17.29456 0
vt -22.71567 0
vt -17.29456 11.62293
vt -22.71567 11.62293
vt -16.03455 0
vt -25.20201 0
vt -16.03455 11.62293
vt -25.20201 11.62293
vt 39.6552 0
vt 37.43771 0
vt 39.6552 11.62293
vt 37.43771 11.62293
vt 1.294774 0
vt -2.861796 0
vt 1.294774 11.62293
vt -2.861796 11.62293
vt -37.26841 0
vt -44.30249 0
vt -37.26841 11.62293
vt -44.30249 11.62293
vt -25.74476 0
vt -28.953 0
vt -25.74476 11.62293
vt -28.953 11.62293
vt 13.03889 -1.907349E-06
vt 9.333926 -1.907349E-06
vt 13.03889 11.62293
vt 9.333927 11.62293
vt 18.41987 -1.907349E-06
vt 13.62189 -1.907349E-06
vt 18.41987 11.62293
vt 13.62189 11.62293
vt -26.244 0
vt -35.26952 0
vt -26.244 11.62293
vt -35.26952 11.62293
vt -9.972771 0
vt -13.51087 0
vt -9.972771 11.62293
vt -13.51087 11.62293
vt 13.42719 3.347964E-07
vt -1.437512 3.347964E-07
vt 13.42719 11.62293
vt -1.437512 11.62293
vt 14.43308 0
vt 6.911107 0
vt 14.43308 11.62293
vt 6.911107 11.62293
vt -35.6785 0
vt -37.19248 0
vt -35.6785 11.62293
vt -37.19248 11.62293
vt 18.13035 0
vt 12.72893 0
vt 18.13035 11.62293
vt 12.72893 11.62293
vt 25.50795 0
vt 19.32753 0
vt 25.50795 11.62293
vt 19.32753 11.62293
vt 30.77952 0
vt 23.9158 0
vt 30.77952 11.62293
vt 23.9158 11.62293
vt 35.48068 0
vt 28.2703 0
vt 35.48068 11.62293
vt 28.2703 11.62293
vt 24.71706 -1.907349E-06
vt 19.03308 -1.907349E-06
vt 24.71706 11.62293
vt 19.03308 11.62293
vt 8.180215 -1.907349E-06
vt 6.281283 -1.907349E-06
vt 8.180215 11.62293
vt 6.281283 11.62293
vt 28.32584 -1.907349E-06
vt 25.55577 -1.907349E-06
vt 28.32584 11.62293
vt 25.55577 11.62293
vt 9.607501 -1.907349E-06
vt 7.253836 -1.907349E-06
vt 9.607501 11.62293
vt 7.253836 11.62293
vt 7.555974 -1.907349E-06
vt 3.330518 -1.907349E-06
vt 7.555974 11.62293
vt 3.330518 11.62293
vt 8.525941 0
vt 1.890083 0
vt 8.525941 11.62293
vt 1.890083 11.62293
vt 32.78886 0
vt 29.12113 -1.907349E-06
vt 32.78886 11.62293
vt 29.12113 11.62293
vt -16.32841 0
vt -23.89872 0
vt -16.32841 11.62293
vt -23.89872 11.62293
vt 9.744963 -1.953191E-06
vt 5.149598 -1.953191E-06
vt 9.744963 11.62293
vt 5.149599 11.62293
vt 4.654297 -1.92587E-06
vt 1.7718 -1.852104E-08
vt 4.654298 11.62293
vt 1.7718 11.62293
vt -10.22629 0
vt -12.1755 0
vt -10.22629 11.62293
vt -12.1755 11.62293
vt -5.946126 -4.644759E-08
vt -10.62313 -4.644759E-08
vt -5.946125 11.62293
vt -10.62313 11.62293
vt -4.11623 -7.609591E-11
vt -6.529689 -7.609594E-11
vt -4.11623 11.62293
vt -6.529688 11.62293
vt 3.965891 -4.427654E-10
vt 2.940902 -4.427646E-10
vt 3.965891 11.62293
vt 2.940902 11.62293
vt 0.9832997 6.045986E-16
vt 0.9832999 11.62293
vt 2.501159E-07 11.62293
vt 2.314531 1.946131E-08
vt 0.4715464 1.946131E-08
vt 2.314531 11.62293
vt 0.4715464 11.62293
vt 1.643397 9.802322E-09
vt 0.3914059 9.802322E-09
vt 1.643397 11.62293
vt 0.3914057 11.62293
vt -0.9257268 -9.850858E-16
vt -0.9257268 11.62293
vt -0.3973425 1.205762E-08
vt -1.960247 1.205762E-08
vt -0.3973422 11.62293
vt -1.960247 11.62293
vt -0.5239646 -1.339484E-08
vt -3.562999 -1.339484E-08
vt -0.5239643 11.62293
vt -3.562999 11.62293

vn 1.298949E-07 -1 8.032042E-08
vn 0.8294715 0 0.558549
vn 0.02685437 0 0.9996393
vn 0.999476 0 -0.03236865
vn 0.2131822 0 0.9770125
vn -0.2264675 0 0.9740188
vn 0.4761862 0 0.8793445
vn -0.7807564 0 -0.6248356
vn -0.9216062 0 0.3881261
vn 0.1048853 0 0.9944843
vn 0.9474915 0 0.3197809
vn 0.9578264 0 -0.2873477
vn 0.8261465 0 -0.5634554
vn -0.5934065 0 0.804903
vn -0.9343992 0 0.3562277
vn -0.9864467 -6.731541E-09 -0.1640816
vn -0.8765011 0 -0.4813998
vn -0.8220119 0 0.5694703
vn -0.7395058 0 -0.6731502
vn -0.5115102 0 -0.8592772
vn -0.2207637 0 -0.9753273
vn 0.2231983 0 -0.9747731
vn 0.821483 0 -0.570233
vn 0.8056512 0 0.5923902
vn 0.9298066 0 -0.3680483
vn 0.7295374 0 0.6839409
vn -0.3047763 0 -0.9524239
vn -0.4866913 0 -0.873574
vn 0.8682825 0 -0.49607
vn -0.4473664 0 0.8943508
vn 0.9157195 -1.648481E-08 -0.401818
vn 0.96708 -5.219941E-09 -0.2544727
vn 0.7088767 0 0.7053325
vn 0.7877508 1.719202E-08 0.615994
vn 0.9668697 5.560274E-10 0.2552706
vn 0.2081061 -2.934843E-08 -0.9781063
vn 0.9761873 -1.807747E-08 -0.2169292
vn 0.2777777 -2.25545E-08 -0.9606454
vn -0.6985363 -4.019109E-09 -0.7155746
vn 0.2712737 -2.736449E-08 -0.9625022
vn 0.9857677 -1.4421E-08 -0.1681132
vn 0.7314847 6.484406E-09 0.6818578

usemtl Lit
f 38/38/1 41/41/1 35/35/1
f 38/38/1 40/40/1 41/41/1
f 36/36/1 38/38/1 35/35/1
f 36/36/1 39/39/1 38/38/1
f 37/37/1 38/38/1 39/39/1
f 36/36/1 35/35/1 32/32/1
f 35/35/1 34/34/1 32/32/1
f 32/32/1 34/34/1 33/33/1
f 32/32/1 33/33/1 4/4/1
f 32/32/1 4/4/1 1/1/1
f 32/32/1 1/1/1 31/31/1
f 1/1/1 14/14/1 31/31/1
f 5/5/1 14/14/1 1/1/1
f 14/14/1 5/5/1 12/12/1
f 14/14/1 12/12/1 9/9/1
f 9/9/1 15/15/1 14/14/1
f 18/18/1 15/15/1 9/9/1
f 15/15/1 18/18/1 24/24/1
f 24/24/1 25/25/1 15/15/1
f 24/24/1 29/29/1 25/25/1
f 24/24/1 30/30/1 29/29/1
f 29/29/1 27/27/1 25/25/1
f 25/25/1 27/27/1 28/28/1
f 25/25/1 26/26/1 15/15/1
f 22/22/1 24/24/1 18/18/1
f 22/22/1 23/23/1 24/24/1
f 21/21/1 22/22/1 18/18/1
f 20/20/1 21/21/1 18/18/1
f 19/19/1 20/20/1 18/18/1
f 18/18/1 9/9/1 16/16/1
f 16/16/1 9/9/1 17/17/1
f 13/13/1 14/14/1 15/15/1
f 9/9/1 12/12/1 11/11/1
f 9/9/1 11/11/1 10/10/1
f 8/8/1 9/9/1 10/10/1
f 5/5/1 1/1/1 6/6/1
f 5/5/1 6/6/1 7/7/1
f 4/4/1 2/2/1 1/1/1
f 1/1/1 2/2/1 3/3/1
f 43/45/2 3/43/2 2/42/2
f 2/42/2 42/44/2 43/45/2
f 44/49/3 1/47/3 3/46/3
f 3/46/3 43/48/3 44/49/3
f 42/53/4 2/51/4 4/50/4
f 4/50/4 45/52/4 42/53/4
f 47/57/5 7/55/5 6/54/5
f 6/54/5 46/56/5 47/57/5
f 48/61/6 5/59/6 7/58/6
f 7/58/6 47/60/6 48/61/6
f 46/65/7 6/63/7 1/62/7
f 1/62/7 44/64/7 46/65/7
f 50/69/8 9/67/8 8/66/8
f 8/66/8 49/68/8 50/69/8
f 49/73/9 8/71/9 10/70/9
f 10/70/9 51/72/9 49/73/9
f 51/77/10 10/75/10 11/74/10
f 11/74/10 52/76/10 51/77/10
f 52/81/11 11/79/11 12/78/11
f 12/78/11 53/80/11 52/81/11
f 55/85/12 14/83/12 13/82/12
f 13/82/12 54/84/12 55/85/12
f 54/89/13 13/87/13 15/86/13
f 15/86/13 56/88/13 54/89/13
f 57/93/14 17/91/14 9/90/14
f 9/90/14 50/92/14 57/93/14
f 58/97/15 16/95/15 17/94/15
f 17/94/15 57/96/15 58/97/15
f 59/101/16 18/99/16 16/98/16
f 16/98/16 58/100/16 59/101/16
f 61/105/17 20/103/17 19/102/17
f 19/102/17 60/104/17 61/105/17
f 60/109/18 19/107/18 18/106/18
f 18/106/18 59/108/18 60/109/18
f 62/113/19 21/111/19 20/110/19
f 20/110/19 61/112/19 62/113/19
f 63/117/20 22/115/20 21/114/20
f 21/114/20 62/116/20 63/117/20
f 64/121/21 23/119/21 22/118/21
f 22/118/21 63/120/21 64/121/21
f 65/125/22 24/123/22 23/122/22
f 23/122/22 64/124/22 65/125/22
f 67/129/23 26/127/23 25/126/23
f 25/126/23 66/128/23 67/129/23
f 56/133/24 15/131/24 26/130/24
f 26/130/24 67/132/24 56/133/24
f 69/137/25 28/135/25 27/134/25
f 27/134/25 68/136/25 69/137/25
f 66/141/26 25/139/26 28/138/26
f 28/138/26 69/140/26 66/141/26
f 68/145/27 27/143/27 29/142/27
f 29/142/27 70/144/27 68/145/27
f 71/149/28 30/147/28 24/146/28
f 24/146/28 65/148/28 71/149/28
f 70/153/29 29/151/29 30/150/29
f 30/150/29 71/152/29 70/153/29
f 53/157/30 12/155/30 5/154/30
f 5/154/30 48/156/30 53/157/30
f 72/161/31 31/159/31 14/158/31
f 14/158/31 55/160/31 72/161/31
f 73/165/32 32/163/32 31/162/32
f 31/162/32 72/164/32 73/165/32
f 45/169/33 4/167/33 33/166/33
f 33/166/33 74/168/33 45/169/33
f 74/173/34 33/171/34 34/170/34
f 34/170/34 75/172/34 74/173/34
f 75/177/35 34/175/35 35/174/35
f 35/174/35 76/176/35 75/177/35
f 77/181/36 36/179/36 32/178/36
f 32/178/36 73/180/36 77/181/36
f 79/184/37 38/38/37 37/182/37
f 37/182/37 78/183/37 79/184/37
f 78/188/38 37/186/38 39/185/38
f 39/185/38 80/187/38 78/188/38
f 80/192/39 39/190/39 36/189/39
f 36/189/39 77/191/39 80/192/39
f 81/194/40 40/193/40 38/38/40
f 38/38/40 79/184/40 81/194/40
f 82/198/41 41/196/41 40/195/41
f 40/195/41 81/197/41 82/198/41
f 76/202/42 35/200/42 41/199/42
f 41/199/42 82/201/42 76/202/42

